# xmcd
#
# Track frame offsets: 
#        150
#        23448
#        44084
#        74889
#        94780
#        124739
#        147021
#        171636
#        182218
#        208650
#        227029
#        257421
#        268658
#        287509
#        304161
#        326735
#        350787
#
# Disc length: 4780 seconds
#
# Revision: 1
# Processed by: cddbd v1.5.2PL0 Copyright (c) Steve Scherf et al.
# Submitted via: ExactAudioCopy v1.3
#
DISCID=0e12aa11
DTITLE=Various Artist - Akella Presents - vol.41 - Blues Instrumental
DTITLE=CD1
DYEAR=2014
DGENRE=Blues
TTITLE0=Guitar Pete - The Stranger
TTITLE1=Tinsley Ellis - Sassy Start
TTITLE2=Stevie Ray Vaughan - Little Wing
TTITLE3=Kim Simmonds - Cobra
TTITLE4=Van Wilks - Without A Word
TTITLE5=Slide Brothers - Wade In The Water
TTITLE6=Vargas Blues Band - Blues Latino
TTITLE7=Voronofff - Krimi
TTITLE8=Melvin Taylor - Eclipse
TTITLE9=Chris Duarte - C-Butt Rock
TTITLE10=Craig Erickson - Street of Dreams
TTITLE11=Tony Spinner - Josie
TTITLE12=Larry Miller - The Wrong Name ( Part Two )
TTITLE13=Stevie Cochran - Heckle And Jeckle
TTITLE14=Dave Meniketti - Until the Next Time
TTITLE15=Wes Jeans - Stratus
TTITLE16=Bobby Manriques - Smokehouse
EXTD=
EXTT0=
EXTT1=
EXTT2=
EXTT3=
EXTT4=
EXTT5=
EXTT6=
EXTT7=
EXTT8=
EXTT9=
EXTT10=
EXTT11=
EXTT12=
EXTT13=
EXTT14=
EXTT15=
EXTT16=
PLAYORDER=
